
<?xml version="1.0" encoding="UTF-8"?>
<svg width="20px" height="20px" viewBox="0 0 20 20" version="1.1" xmlns="http://www.w3.org/2000/svg" xmlns:xlink="http://www.w3.org/1999/xlink">
    <title>copy</title>
    <g id="页面-1" stroke="none" stroke-width="1" fill="none" fill-rule="evenodd">
        <g id="区块链浏览器-区块详情" transform="translate(-392.000000, -215.000000)">
            <g id="编组-3" transform="translate(240.000000, 205.000000)">
                <g id="copy" transform="translate(152.000000, 10.000000)">
                    <rect id="矩形" x="0" y="0" width="20" height="20"></rect>
                    <g id="编组-8" transform="translate(3.333333, 3.750000)" fill="#000000" fill-rule="nonzero">
                        <path d="M13.3333333,10 L12.2105814,10 L12.2105814,2.63157214 C12.2105814,1.78954142 11.4245945,1.05270638 10.5263158,1.05270638 L2.66666667,1.05270638 L2.66666667,0 L10.5263158,0 C12.0982622,0 13.3333333,1.15787624 13.3333333,2.63157214 L13.3333333,10 Z" id="Fill-1"></path>
                        <path d="M9.06674133,12.5 L1.60003012,12.5 C0.746689451,12.5 0,11.8001013 0,11.00007 L0,4.00005277 C0,3.20002136 0.746689451,2.5 1.60003012,2.5 L9.06674133,2.5 C9.92000344,2.5 10.6666667,3.20002136 10.6666667,4.00005277 L10.6666667,11.00007 C10.6666667,11.8000032 9.92000344,12.5 9.06674133,12.5 Z M1.60003012,3.50005155 C1.27999791,3.50005155 1.06661692,3.70009623 1.06661692,4.00005155 L1.06661692,11.00007 C1.06661692,11.3001247 1.27999791,11.5000516 1.60003012,11.5000516 L9.06674133,11.5000516 C9.38669498,11.5000516 9.60004979,11.3001247 9.60004979,11.00007 L9.60004979,4.00005155 C9.60004979,3.69999803 9.38669498,3.50005155 9.06674133,3.50005155 L1.60003012,3.50005155 Z" id="Fill-3"></path>
                    </g>
                </g>
            </g>
        </g>
    </g>
</svg>
