<svg width="14" height="14" viewBox="0 0 14 14" fill="none" xmlns="http://www.w3.org/2000/svg">
<path d="M13.6667 10.75H12.5439V3.38157C12.5439 2.53954 11.7579 1.80271 10.8596 1.80271H3V0.75H10.8596C12.4316 0.75 13.6667 1.90788 13.6667 3.38157V10.75Z" fill="white"/>
<path fill-rule="evenodd" clip-rule="evenodd" d="M1.93304 13.25H9.39975C10.253 13.25 10.9997 12.55 10.9997 11.7501V4.75005C10.9997 3.95002 10.253 3.25 9.39975 3.25H1.93304C1.0797 3.25 0.333008 3.95002 0.333008 4.75005V11.7501C0.333008 12.5501 1.0797 13.25 1.93304 13.25ZM1.39962 4.75005C1.39962 4.4501 1.61301 4.25005 1.93304 4.25005H9.39975C9.7197 4.25005 9.93306 4.45 9.93306 4.75005V11.7501C9.93306 12.0501 9.7197 12.25 9.39975 12.25H1.93304C1.61301 12.25 1.39962 12.0501 1.39962 11.7501V4.75005Z" fill="white"/>
</svg>
