<?xml version="1.0" encoding="UTF-8"?>
<svg width="20px" height="20px" viewBox="0 0 20 20" version="1.1" xmlns="http://www.w3.org/2000/svg" xmlns:xlink="http://www.w3.org/1999/xlink">
    <title>Detail</title>
    <g id="页面-1" stroke="none" stroke-width="1" fill-rule="evenodd">
        <g id="3.用户信息" transform="translate(-40.000000, -230.000000)" fill-rule="nonzero">
            <g id="编组备份" transform="translate(0.000000, 200.000000)">
                <g id="Detail" transform="translate(40.000000, 30.000000)">
                    <path d="M12,0 C12.0401471,0 12.0797417,0.00236583586 12.1186518,0.00696569626 C12.3400814,0.0304418528 12.5477247,0.121373779 12.7071068,0.266266563 L12.7071068,0.266266563 L18.7071068,5.72081202 C18.8946432,5.89129963 19,6.12253046 19,6.36363636 L19,6.36363636 L19,17.2727273 C19,18.7789584 17.6568542,20 16,20 L16,20 L4,20 C2.34314575,20 1,18.7789584 1,17.2727273 L1,17.2727273 L1,2.72727273 C1,1.22104159 2.34314575,0 4,0 L4,0 L12,0 L12,0 Z M11,1.818 L4,1.81818182 C3.44771525,1.81818182 3,2.22519568 3,2.72727273 L3,2.72727273 L3,17.2727273 C3,17.7748043 3.44771525,18.1818182 4,18.1818182 L4,18.1818182 L16,18.1818182 C16.5522847,18.1818182 17,17.7748043 17,17.2727273 L17,17.2727273 L17,8 L12,8 C11.4871642,8 11.0644928,7.61395981 11.0067277,7.11662113 L11,7 L11,1.818 Z M14,13 C14.5522847,13 15,13.4477153 15,14 C15,14.5128358 14.6139598,14.9355072 14.1166211,14.9932723 L14,15 L6,15 C5.44771525,15 5,14.5522847 5,14 C5,13.4871642 5.38604019,13.0644928 5.88337887,13.0067277 L6,13 L14,13 Z M10,9 C10.5522847,9 11,9.44771525 11,10 C11,10.5128358 10.6139598,10.9355072 10.1166211,10.9932723 L10,11 L6,11 C5.44771525,11 5,10.5522847 5,10 C5,9.48716416 5.38604019,9.06449284 5.88337887,9.00672773 L6,9 L10,9 Z M13,3.104 L13,6 L16.186,6 L13,3.104 Z"></path>
                </g>
            </g>
        </g>
    </g>
</svg>
