<?xml version="1.0" encoding="UTF-8"?>
<svg width="20px" height="20px" viewBox="0 0 20 20" version="1.1" xmlns="http://www.w3.org/2000/svg" xmlns:xlink="http://www.w3.org/1999/xlink">
    <title>Overview</title>
    <g id="页面-1" stroke="none" stroke-width="1" fill-rule="evenodd" >
        <g id="3.用户信息" transform="translate(-40.000000, -150.000000)" fill-rule="nonzero">
            <g id="编组" transform="translate(0.000000, 120.000000)">
                <path d="M43,50 C41.3431458,50 40,48.6568542 40,47 L40,47 L40,33 C40,31.3431458 41.3431458,30 43,30 L43,30 L57,30 C58.6568542,30 60,31.3431458 60,33 L60,33 L60,47 C60,48.6568542 58.6568542,50 57,50 L57,50 Z M46,38 L42,38 L42,47 C42,47.5128358 42.3860402,47.9355072 42.8833789,47.9932723 L43,48 L46,48 L46,38 Z M58,38 L48,38 L48,48 L57,48 C57.5128358,48 57.9355072,47.6139598 57.9932723,47.1166211 L58,47 L58,38 Z M57,32 L43,32 C42.4477153,32 42,32.4477153 42,33 L42,33 L42,36 L58,36 L58,33 C58,32.4871642 57.6139598,32.0644928 57.1166211,32.0067277 L57,32 Z" id="Overview"></path>
            </g>
        </g>
    </g>
</svg>
