
<svg width="26" height="26" viewBox="0 0 26 26" fill="none" xmlns="http://www.w3.org/2000/svg">
<path d="M19.6663 2.33325H22.001C24.0263 2.33325 25.6663 3.97459 25.6663 6.00292V21.9966C25.6663 24.0236 24.0257 25.6666 22.001 25.6666H3.99834C1.97301 25.6666 0.333008 24.0253 0.333008 21.9969V6.00325C0.333008 3.97625 1.97367 2.33325 3.99834 2.33325H6.33301V1.33325C6.33301 1.06804 6.43836 0.813682 6.6259 0.626145C6.81344 0.438609 7.06779 0.333252 7.33301 0.333252C7.59822 0.333252 7.85258 0.438609 8.04012 0.626145C8.22765 0.813682 8.33301 1.06804 8.33301 1.33325V2.33325H17.6663V1.33325C17.6663 1.06804 17.7717 0.813682 17.9592 0.626145C18.1468 0.438609 18.4011 0.333252 18.6663 0.333252C18.9316 0.333252 19.1859 0.438609 19.3734 0.626145C19.561 0.813682 19.6663 1.06804 19.6663 1.33325V2.33325ZM19.6663 4.33325V5.33325C19.6663 5.59847 19.561 5.85282 19.3734 6.04036C19.1859 6.2279 18.9316 6.33325 18.6663 6.33325C18.4011 6.33325 18.1468 6.2279 17.9592 6.04036C17.7717 5.85282 17.6663 5.59847 17.6663 5.33325V4.33325H8.33301V5.33325C8.33301 5.59847 8.22765 5.85282 8.04012 6.04036C7.85258 6.2279 7.59822 6.33325 7.33301 6.33325C7.06779 6.33325 6.81344 6.2279 6.6259 6.04036C6.43836 5.85282 6.33301 5.59847 6.33301 5.33325V4.33325H3.99834C3.77936 4.33351 3.56257 4.37691 3.36036 4.46097C3.15814 4.54502 2.97447 4.66809 2.81983 4.82313C2.66518 4.97818 2.54259 5.16217 2.45906 5.3646C2.37554 5.56703 2.3327 5.78393 2.33301 6.00292V21.9966C2.33244 22.2157 2.37509 22.4327 2.45852 22.6353C2.54195 22.8378 2.66453 23.0219 2.81922 23.1771C2.97391 23.3322 3.15769 23.4553 3.36002 23.5393C3.56235 23.6233 3.77927 23.6665 3.99834 23.6666H22.001C22.22 23.6663 22.4368 23.6229 22.639 23.5389C22.8412 23.4548 23.0249 23.3317 23.1795 23.1767C23.3342 23.0217 23.4568 22.8377 23.5403 22.6352C23.6238 22.4328 23.6666 22.2159 23.6663 21.9969V6.00325C23.6669 5.78418 23.6243 5.56714 23.5408 5.36458C23.4574 5.16201 23.3348 4.97789 23.1801 4.82276C23.0254 4.66764 22.8417 4.54455 22.6393 4.46055C22.437 4.37655 22.2201 4.33329 22.001 4.33325H19.6663ZM19.333 11.3333C19.5982 11.3333 19.8526 11.4386 20.0401 11.6261C20.2276 11.8137 20.333 12.068 20.333 12.3333C20.333 12.5985 20.2276 12.8528 20.0401 13.0404C19.8526 13.2279 19.5982 13.3333 19.333 13.3333H6.66634C6.40113 13.3333 6.14677 13.2279 5.95923 13.0404C5.7717 12.8528 5.66634 12.5985 5.66634 12.3333C5.66634 12.068 5.7717 11.8137 5.95923 11.6261C6.14677 11.4386 6.40113 11.3333 6.66634 11.3333H19.333ZM15.333 16.3333C15.5982 16.3333 15.8526 16.4386 16.0401 16.6261C16.2277 16.8137 16.333 17.068 16.333 17.3333C16.333 17.5985 16.2277 17.8528 16.0401 18.0404C15.8526 18.2279 15.5982 18.3333 15.333 18.3333H6.66634C6.40113 18.3333 6.14677 18.2279 5.95923 18.0404C5.7717 17.8528 5.66634 17.5985 5.66634 17.3333C5.66634 17.068 5.7717 16.8137 5.95923 16.6261C6.14677 16.4386 6.40113 16.3333 6.66634 16.3333H15.333Z" fill="#999" />
</svg>
