<?xml version="1.0" encoding="UTF-8"?>
<svg width="13px" height="13px" viewBox="0 0 13 13" version="1.1" xmlns="http://www.w3.org/2000/svg" xmlns:xlink="http://www.w3.org/1999/xlink">
    <title>expand-arrows</title>
    <g id="页面-1" stroke="none" stroke-width="1" fill="none" fill-rule="evenodd" opacity="0.6">
        <g id="Contact-Detail" transform="translate(-1487.000000, -868.000000)" fill="#000000" fill-rule="nonzero">
            <path d="M1498.92185,880.374998 C1499.1023,880.374998 1499.24997,880.227331 1499.24997,880.046874 L1499.24177,877.20313 C1499.24177,877.022673 1499.09411,876.875006 1498.91365,876.875006 L1498.64021,876.875006 C1498.45973,876.875006 1498.31209,877.022673 1498.31209,877.20313 L1498.32029,878.789064 L1498.30114,878.80821 L1493.74294,874.250013 L1498.30114,869.691815 L1498.32029,869.710961 L1498.31209,871.296895 C1498.31209,871.477352 1498.45973,871.625027 1498.64021,871.625027 L1498.91365,871.625027 C1499.09411,871.625027 1499.24177,871.477352 1499.24177,871.296895 L1499.24997,868.453151 C1499.24997,868.272694 1499.1023,868.125027 1498.92185,868.125027 L1496.0781,868.133225 C1495.89765,868.133225 1495.74998,868.280891 1495.74998,868.461349 L1495.74998,868.734786 C1495.74998,868.91527 1495.89765,869.06291 1496.0781,869.06291 L1497.66404,869.054712 L1497.68318,869.073858 L1493.12499,873.632056 L1488.56679,869.073858 L1488.58593,869.054712 L1490.17187,869.06291 C1490.35233,869.06291 1490.5,868.91527 1490.5,868.734786 L1490.5,868.461349 C1490.5,868.280891 1490.35233,868.133225 1490.17187,868.133225 L1487.32812,868.125027 C1487.14767,868.125027 1487,868.272694 1487,868.453151 L1487.0082,871.296895 C1487.0082,871.477352 1487.15586,871.625027 1487.33632,871.625027 L1487.60976,871.625027 C1487.79024,871.625027 1487.93788,871.477352 1487.93788,871.296895 L1487.92969,869.710961 L1487.94883,869.691815 L1492.50703,874.250013 L1487.94883,878.80821 L1487.92969,878.789064 L1487.93788,877.20313 C1487.93788,877.022673 1487.79024,876.875006 1487.60976,876.875006 L1487.33632,876.875006 C1487.15586,876.875006 1487.0082,877.022673 1487.0082,877.20313 L1487,880.046874 C1487,880.227331 1487.14767,880.374998 1487.32812,880.374998 L1490.17187,880.3668 C1490.35233,880.3668 1490.5,880.219134 1490.5,880.038676 L1490.5,879.765239 C1490.5,879.584755 1490.35233,879.437115 1490.17187,879.437115 L1488.58593,879.445313 L1488.56679,879.426167 L1493.12499,874.867969 L1497.68318,879.426167 L1497.66404,879.445313 L1496.0781,879.437115 C1495.89765,879.437115 1495.74998,879.584755 1495.74998,879.765239 L1495.74998,880.038676 C1495.74998,880.219134 1495.89765,880.3668 1496.0781,880.3668 L1498.92185,880.374998 Z" id="expand-arrows"></path>
        </g>
    </g>
</svg>