<?xml version="1.0" encoding="UTF-8" standalone="no"?><!DOCTYPE svg PUBLIC "-//W3C//DTD SVG 1.1//EN" "http://www.w3.org/Graphics/SVG/1.1/DTD/svg11.dtd"><svg width="100%" height="100%" viewBox="0 0 405 467" version="1.1" xmlns="http://www.w3.org/2000/svg" xmlns:xlink="http://www.w3.org/1999/xlink" xml:space="preserve" xmlns:serif="http://www.serif.com/" style="fill-rule:evenodd;clip-rule:evenodd;stroke-linejoin:round;stroke-miterlimit:2;"><g><path d="M258.564,200.587l-0,233.235l-56.562,32.653l0.014,-233.24l56.548,-32.648Z" style="fill:#02af92;"/><path d="M331.284,158.604l-0,233.235l-56.562,32.653l0.014,-233.24l56.548,-32.648Z" style="fill:#02af92;"/><path d="M404.003,116.62l0,233.235l-56.562,32.654l0.015,-233.241l56.547,-32.648Z" style="fill:#02af92;"/><path d="M0,116.623l201.997,-116.623l56.567,32.656l-201.997,116.623l-56.567,-32.656Z" style="fill:#01e499;"/><path d="M72.72,158.604l201.997,-116.623l56.567,32.656l-201.997,116.623l-56.567,-32.656Z" style="fill:#01e499;"/><path d="M145.44,200.585l201.997,-116.623l56.566,32.655l-201.997,116.623l-56.566,-32.655Z" style="fill:#01e499;"/><path d="M0,116.62l0,68.355l202.002,116.62l-0,-68.355l-202.002,-116.62Z" style="fill:#01e499;"/><path d="M0,200.587l0,68.355l202.002,116.62l-0,-68.355l-202.002,-116.62Z" style="fill:#01e499;"/><path d="M0,281.501l0,68.354l202.002,116.62l-0,-68.354l-202.002,-116.62Z" style="fill:#01e499;"/></g></svg>