<svg xmlns="http://www.w3.org/2000/svg" viewBox="0 0 371.88 96.03"><defs><style>.cls-1,.cls-2{fill:#0078fa;}.cls-1,.cls-3{opacity:0.92;}</style></defs><title>资源 4</title><g id="图层_2" data-name="图层 2"><g id="Õ__1" data-name="Õº≤„_1"><rect class="cls-1" x="298.42" y="22.46" width="14.69" height="49.33"/><path class="cls-2" d="M149.1,73a26,26,0,1,1,19.43-43.21l-9.25,9.19a13.11,13.11,0,0,0-10.18-4.83,12.88,12.88,0,1,0,0,25.76,13.1,13.1,0,0,0,12.06-8.17L172,59.32C166.81,68.38,158.32,73,149.1,73Z"/><path class="cls-2" d="M272.52,22.51v3.65a21.82,21.82,0,0,0-14.2-5.09c-13.27,0-24.69,11.65-24.69,26,0,14.57,12,26,24.69,26a22.09,22.09,0,0,0,14.2-4.63v3.46h14.69V22.51ZM259.6,59.92A12.88,12.88,0,1,1,272.48,47,12.9,12.9,0,0,1,259.6,59.92Z"/><path class="cls-2" d="M30.63,72.75A30.63,30.63,0,1,1,61.25,42.12,30.66,30.66,0,0,1,30.63,72.75Zm0-47.29A16.66,16.66,0,1,0,47.29,42.12,16.68,16.68,0,0,0,30.63,25.46Z"/><g class="cls-3"><path class="cls-2" d="M314.28,8.51A8.52,8.52,0,1,1,305.77,0,8.51,8.51,0,0,1,314.28,8.51Z"/></g><rect class="cls-2" x="68.63" y="83.9" width="47.47" height="12.13"/><path class="cls-2" d="M116.1,39.49A18.14,18.14,0,0,0,114.27,31,18.35,18.35,0,0,0,97.75,21,19,19,0,0,0,83.3,28.31l0-5.85H68.64V71.74H83.33V43.09c0-2.15,1.55-5.7,4.87-8,2.45-1.71,6.15-2.76,9.18-1.17,4,2.07,4,5.19,4,9.39h0V71.74h14.69S116.13,47.64,116.1,39.49Z"/><path class="cls-1" d="M371.87,39.49A17.95,17.95,0,0,0,353.51,21a19,19,0,0,0-14.45,7.29l0-5.85H324.4V71.74h14.69V43.09c0-2.15,1.56-5.7,4.87-8,2.45-1.71,6.15-2.76,9.18-1.17,4,2.07,4,5.19,4,9.39h0V71.74h14.69S371.89,47.64,371.87,39.49Z"/><path class="cls-2" d="M226.42,39.49a18.49,18.49,0,0,0-1.68-8.57C222,25.65,216.93,21,208.07,21a19,19,0,0,0-14.45,7.29l0-26.13H179V71.74h14.69V43.09c0-2.15,1.55-5.7,4.87-8,2.45-1.71,6.15-2.76,9.18-1.17,4,2.07,4,5.19,4,9.39h0V71.74h14.69S226.45,47.64,226.42,39.49Z"/></g></g></svg>