<svg width="8" height="8" viewBox="0 0 8 8" fill="none" xmlns="http://www.w3.org/2000/svg">
<g id="&#231;&#188;&#150;&#231;&#187;&#132; 4">
<circle id="&#230;&#164;&#173;&#229;&#156;&#134;&#229;&#189;&#162;" cx="4" cy="4" r="4" fill="#2AB9A5"/>
<path id="Fill 1" fill-rule="evenodd" clip-rule="evenodd" d="M5.95653 3.08373L3.60144 5.4556C3.54224 5.5148 3.44674 5.5148 3.38754 5.4556L3.34006 5.40756L3.28869 5.35563L3.06641 5.13223C3.06529 5.13056 3.06474 5.12887 3.06306 5.1272L2.0444 4.09403C1.9852 4.03427 1.9852 3.93765 2.0444 3.87845L2.36553 3.55509C2.42473 3.49589 2.52079 3.49589 2.57942 3.55509L3.50091 4.50171L5.42094 2.54482C5.48014 2.48506 5.5762 2.48506 5.63484 2.54482L5.95597 2.86816C6.01573 2.92792 6.01573 3.02456 5.95653 3.08373Z" fill="white"/>
</g>
</svg>
