
<?xml version="1.0" encoding="UTF-8"?>
<svg width="32px" height="32px" viewBox="0 0 32 32" version="1.1" xmlns="http://www.w3.org/2000/svg" xmlns:xlink="http://www.w3.org/1999/xlink">
    <title>编组</title>
    <g id="页面-1" stroke="none"  stroke-width="1" fill-rule="evenodd">
        <g id="2.总览" transform="translate(-1776.000000, -24.000000)"  fill-rule="nonzero">
            <g id="NAV-white" transform="translate(260.000000, 0.000000)">
                <g id="编组" transform="translate(1516.000000, 24.000000)">
                    <path d="M16,5.32907051e-16 C24.8368,5.32907051e-16 32,7.16320001 32,16 C32,24.8368 24.8368,32 16,32 C7.16320001,32 5.32907051e-16,24.8368 5.32907051e-16,16 C5.32907051e-16,7.16320001 7.16320001,5.32907051e-16 16,5.32907051e-16 Z M16,17.5999992 C11.7417315,17.5984567 7.80184199,19.8546067 5.64800002,23.528 C8.05483919,26.8422452 11.9040155,28.8025289 16,28.8000032 C20.095697,28.8029009 23.9448173,26.8432405 26.352,23.5296 C24.1985605,19.8555916 20.2585958,17.5987896 16,17.5999992 L16,17.5999992 Z M16,5.60000002 C13.3490332,5.60000002 11.2,7.74903322 11.2,10.4 C11.2,13.0509668 13.3490332,15.2 16,15.2 C18.6509668,15.2 20.8,13.0509668 20.8,10.4 C20.8,7.74903322 18.6509668,5.60000002 16,5.60000002 Z" id="形状"></path>
                </g>
            </g>
        </g>
    </g>
</svg>
