<?xml version="1.0" encoding="UTF-8"?>
<svg width="20px" height="20px" viewBox="0 0 20 20" version="1.1" xmlns="http://www.w3.org/2000/svg" xmlns:xlink="http://www.w3.org/1999/xlink">
    <title>Analysis</title>
    <g id="页面-1" stroke="none" stroke-width="1" fill-rule="evenodd">
        <g id="3.用户信息" transform="translate(-40.000000, -310.000000)" fill-rule="nonzero">
            <g id="编组备份-2" transform="translate(0.000000, 280.000000)">
                <g id="Analysis" transform="translate(40.000000, 30.000000)">
                    <path d="M10,0 C11.2988862,0 12.540165,0.075155436 13.6790352,0.219785099 L13.6790352,0.219785099 L14.2397288,0.297863148 C17.6421548,0.81472209 20,1.98306683 20,3.63636364 L20,3.63636364 L20,16.3636364 C20,18.2441485 16.9768111,19.4935309 12.8143061,19.8759267 L12.2121155,19.9246313 L11.5956445,19.9613874 C11.0763075,19.9869965 10.5433666,20 10,20 C9.45663345,20 8.92369248,19.9869965 8.40435553,19.9613874 L7.78788455,19.9246313 L7.18569394,19.8759267 C3.12229616,19.5026355 0.144607247,18.3031514 0.00511605022,16.4968821 L0,16.3636364 L0,3.63636364 L0.00608556251,3.49174727 C0.139600395,1.91490424 2.45791658,0.799520357 5.76027115,0.297863148 L5.76027115,0.297863148 L6.32096478,0.219785099 C7.45983497,0.075155436 8.70111381,0 10,0 Z M12.8143061,13.5122903 L12.2121155,13.560995 L11.5956445,13.5977511 C11.0763075,13.6233601 10.5433666,13.6363636 10,13.6363636 C9.45663345,13.6363636 8.92369248,13.6233601 8.40435553,13.5977511 L7.78788455,13.560995 L7.18569394,13.5122903 C5.0871904,13.3195076 3.27825722,12.9063703 2.0002828,12.3030996 L2,16.3636364 C2,16.5698406 2.2769538,16.802554 2.77286458,17.0309216 L3.03879788,17.1446003 L3.339613,17.2566977 C3.39256616,17.2752012 3.44690561,17.2936031 3.50259778,17.3118856 L3.85271494,17.4200038 L4.23368635,17.524398 C4.49759403,17.5925623 4.7809972,17.6576725 5.08174783,17.7185858 L5.54561586,17.8066652 L6.03389405,17.8875922 L6.54497138,17.9605096 C6.80594132,17.9948231 7.07485681,18.0258117 7.35081164,18.0529931 L7.9118386,18.1021371 L8.49002611,18.1402718 C8.97855176,18.1672254 9.48327485,18.1818182 10,18.1818182 C10.5167252,18.1818182 11.0214482,18.1672254 11.5099739,18.1402718 L12.0881614,18.1021371 L12.6491884,18.0529931 C12.9251432,18.0258117 13.1940587,17.9948231 13.4550286,17.9605096 L13.966106,17.8875922 L14.4543841,17.8066652 L14.9182522,17.7185858 C15.2190028,17.6576725 15.502406,17.5925623 15.7663137,17.524398 L16.1472851,17.4200038 L16.4974022,17.3118856 C16.5530944,17.2936031 16.6074338,17.2752012 16.660387,17.2566977 L16.9612021,17.1446003 L17.2271354,17.0309216 C17.6817203,16.8215846 17.9523205,16.608596 17.9942637,16.4157218 L18,16.3636364 L18.0007338,12.3026196 C16.7227021,12.9061511 14.9133661,13.3194565 12.8143061,13.5122903 Z M18.0006521,5.93396241 C17.0213294,6.39671102 15.7308418,6.74835073 14.2397288,6.97486413 L14.2397288,6.97486413 L13.6790352,7.05294217 C12.540165,7.19757184 11.2988862,7.27272727 10,7.27272727 C8.70111381,7.27272727 7.45983497,7.19757184 6.32096478,7.05294217 L6.32096478,7.05294217 L5.76027115,6.97486413 C4.26965611,6.74842636 2.97953241,6.39694583 2.00032895,5.93442589 L2,10 C2,10.2062043 2.2769538,10.4389176 2.77286458,10.6672852 L3.03879788,10.780964 L3.339613,10.8930614 C3.39256616,10.9115649 3.44690561,10.9299668 3.50259778,10.9482492 L3.85271494,11.0563675 L4.23368635,11.1607617 C4.49759403,11.228926 4.7809972,11.2940361 5.08174783,11.3549494 L5.54561586,11.4430288 L6.03389405,11.5239558 L6.54497138,11.5968733 C6.80594132,11.6311868 7.07485681,11.6621753 7.35081164,11.6893568 L7.9118386,11.7385007 L8.49002611,11.7766354 C8.97855176,11.803589 9.48327485,11.8181818 10,11.8181818 C10.5167252,11.8181818 11.0214482,11.803589 11.5099739,11.7766354 L12.0881614,11.7385007 L12.6491884,11.6893568 C12.9251432,11.6621753 13.1940587,11.6311868 13.4550286,11.5968733 L13.966106,11.5239558 L14.4543841,11.4430288 L14.9182522,11.3549494 C15.2190028,11.2940361 15.502406,11.228926 15.7663137,11.1607617 L16.1472851,11.0563675 L16.4974022,10.9482492 C16.5530944,10.9299668 16.6074338,10.9115649 16.660387,10.8930614 L16.9612021,10.780964 L17.2271354,10.6672852 C17.7230462,10.4389176 18,10.2062043 18,10 Z M10,1.81818182 L9.69296808,1.8199235 C9.18363912,1.82569903 8.68655164,1.84568768 8.20600938,1.87763245 L8.20600938,1.87763245 L7.6375758,1.92156066 L7.08667828,1.97610004 C6.63536276,2.02573011 6.20403545,2.08551068 5.79700011,2.15318476 L5.79700011,2.15318476 L5.32049327,2.23803809 L4.86895935,2.32960249 L4.44405098,2.42701128 C2.93688705,2.79383223 2,3.26103663 2,3.63636364 C2,4.01169064 2.93688705,4.47889505 4.44405098,4.845716 L4.44405098,4.845716 L4.86895935,4.94312478 L5.32049327,5.03468918 L5.79700011,5.11954251 C6.20403545,5.18721659 6.63536276,5.24699716 7.08667828,5.29662723 L7.08667828,5.29662723 L7.6375758,5.35116662 L8.20600938,5.39509482 C8.78266009,5.43342854 9.38313593,5.45454545 10,5.45454545 C10.6168641,5.45454545 11.2173399,5.43342854 11.7939906,5.39509482 L11.7939906,5.39509482 L12.3624242,5.35116662 L12.9133217,5.29662723 C13.3646372,5.24699716 13.7959645,5.18721659 14.2029999,5.11954251 L14.2029999,5.11954251 L14.6795067,5.03468918 L15.1310407,4.94312478 L15.555949,4.845716 C17.063113,4.47889505 18,4.01169064 18,3.63636364 C18,3.26103663 17.063113,2.79383223 15.555949,2.42701128 L15.555949,2.42701128 L15.1310407,2.32960249 L14.6795067,2.23803809 L14.2029999,2.15318476 C13.7959645,2.08551068 13.3646372,2.02573011 12.9133217,1.97610004 L12.9133217,1.97610004 L12.3624242,1.92156066 L11.7939906,1.87763245 C11.2173399,1.83929873 10.6168641,1.81818182 10,1.81818182 L10,1.81818182 Z"></path>
                </g>
            </g>
        </g>
    </g>
</svg>
