
<?xml version="1.0" encoding="UTF-8"?>
<svg width="20px" height="20px" viewBox="0 0 20 20" version="1.1" xmlns="http://www.w3.org/2000/svg" xmlns:xlink="http://www.w3.org/1999/xlink">
    <title>Management</title>
    <g id="页面-1" stroke="none" stroke-width="1" fill-rule="evenodd">
        <g id="5.客商管理" transform="translate(-40.000000, -390.000000)"  fill-rule="nonzero">
            <g id="编组备份-3" transform="translate(0.000000, 360.000000)">
                <path d="M59.9042634,44.1389248 C60.1127612,44.5559205 59.970706,45.0565498 59.5897962,45.3057169 L59.4977048,45.3586007 L50.4067776,49.9040642 C50.1874051,50.0137505 49.9347411,50.02942 49.7058567,49.9510726 L49.5936604,49.9040642 L40.5027332,45.3586007 C40.053661,45.1340645 39.8716385,44.5879971 40.0961746,44.1389248 C40.3046724,43.7219291 40.7904091,43.5351958 41.2182886,43.6904233 L41.3158505,43.7323662 L50.000219,48.0736723 L58.6845875,43.7323662 C59.1336598,43.5078301 59.6797273,43.6898526 59.9042634,44.1389248 Z M41.2182886,39.1449597 L41.3158505,39.1869026 L50.000219,43.5282087 L58.6845875,39.1869026 C59.1336598,38.9623665 59.6797273,39.144389 59.9042634,39.5934612 C60.1127612,40.0104569 59.970706,40.5110862 59.5897962,40.7602533 L59.4977048,40.8131371 L50.4067776,45.3586007 C50.1874051,45.4682869 49.9347411,45.4839564 49.7058567,45.4056091 L49.5936604,45.3586007 L40.5027332,40.8131371 C40.053661,40.588601 39.8716385,40.0425335 40.0961746,39.5934612 C40.3046724,39.1764656 40.7904091,38.9897322 41.2182886,39.1449597 Z M49.5936604,30.0959755 C49.849595,29.9680082 50.150843,29.9680082 50.4067776,30.0959755 L50.4067776,30.0959755 L59.4977048,34.641439 C60.1677502,34.9764618 60.1677502,35.9326508 59.4977048,36.2676735 L59.4977048,36.2676735 L50.4067776,40.8131371 C50.150843,40.9411044 49.849595,40.9411044 49.5936604,40.8131371 L49.5936604,40.8131371 L40.5027332,36.2676735 C39.8326878,35.9326508 39.8326878,34.9764618 40.5027332,34.641439 L40.5027332,34.641439 Z M50.000219,31.9254584 L42.9420232,35.4545563 L50.000219,38.9827451 L57.0575057,35.4545563 L50.000219,31.9254584 Z" id="Management"></path>
            </g>
        </g>
    </g>
</svg>
