
<svg width="16" height="16" viewBox="0 0 16 16" fill="none" xmlns="http://www.w3.org/2000/svg">
<path fill-rule="evenodd" clip-rule="evenodd" d="M1.96092 2.05714C3.21137 0.685714 5.0302 0 6.73535 0C8.4405 0 10.2593 0.685714 11.7371 2.05714C14.1243 4.45714 14.3517 8.22857 12.4192 10.8571L15.8295 14.2857C16.0568 14.5143 16.0568 14.8571 15.8295 15.0857L15.0337 15.8857C14.9201 16 14.8064 16 14.579 16C14.3517 16 14.238 16 14.1243 15.8857L10.714 12.4571C9.46359 13.2571 8.09947 13.7143 6.73535 13.7143C5.0302 13.7143 3.21137 13.0286 1.96092 11.7714C-0.653641 9.02857 -0.653641 4.68571 1.96092 2.05714ZM3.55346 10.0573C4.3492 10.9716 5.48596 11.4287 6.73641 11.4287C7.98685 11.4287 9.12362 10.9716 9.91936 10.0573C10.8288 9.25727 11.2835 8.11442 11.2835 6.85727C11.2835 5.60013 10.8288 4.45727 9.91936 3.65727C9.12362 2.74299 7.98685 2.28585 6.73641 2.28585C5.48596 2.28585 4.3492 2.74299 3.55346 3.65727C2.64405 4.45727 2.18934 5.60013 2.18934 6.85727C2.18934 8.11442 2.64405 9.25727 3.55346 10.0573Z" fill="#5e72e4"/>
</svg>
